<?xml version="1.0" standalone="no"?><!DOCTYPE svg PUBLIC "-//W3C//DTD SVG 1.1//EN" "http://www.w3.org/Graphics/SVG/1.1/DTD/svg11.dtd"><svg class="icon" style="" viewBox="0 0 1024 1024" version="1.1" xmlns="http://www.w3.org/2000/svg" p-id="2492" xmlns:xlink="http://www.w3.org/1999/xlink" width="200" height="200"><defs><style type="text/css"><![CDATA[

]]></style></defs><path d="M525.806959 370.860493c-25.252127 0-46.647413 8.852622-63.514569 26.361391-16.934694 17.522072-25.554002 39.436174-25.554003 65.159022 0 24.648376 8.853645 45.994544 26.258037 63.414285 17.405415 17.403369 38.531572 26.241664 62.811558 26.241664 25.086351 0 46.580898-8.635681 63.886029-25.654286 17.304108-17.017582 26.089192-38.851866 26.089192-64.941058 0-25.252127-8.887414-46.901193-26.424836-64.320935-17.507746-17.440208-38.903032-26.260084-63.551408-26.260083z" fill="#FF280D" p-id="2493"></path><path d="M851.569324 145.43637H164.86742c-56.877405 0-103.020328 46.112224-103.020328 103.023398v421.772023c0 56.909128 46.143946 103.020328 103.020328 103.020328h265.130449l84.977394 85.851297 96.280833-85.851297h240.313228c56.878428 0 103.022375-46.111201 103.022375-103.020328V248.460792c0-56.912198-46.143946-103.024421-103.022375-103.024422zM369.364931 576.701604h-30.818913V469.455021H234.318188v107.246583h-31.15251V346.214163h31.15251v93.027743h104.22783v-93.027743h30.818913v230.487441z m262.146488-54.561663c-10.663874 18.644639-25.486464 33.470299-44.100404 44.099381-18.611893 10.630105-38.999223 16.029068-60.697407 16.029068-21.866007 0-42.423205-5.332449-61.135382-15.861246-18.712177-10.530844-33.669844-25.255197-44.401256-43.765783-10.732435-18.511609-16.196891-38.799678-16.19689-60.261479 0-22.100344 5.398964-42.776246 16.029068-61.47205 10.630105-18.710131 25.387203-33.601282 43.930535-44.248783 18.511609-10.630105 38.666648-16.012695 59.927881-16.012695 22.269189 0 43.093471 5.332449 61.907978 15.8285 18.811438 10.528797 33.834596 25.320689 44.568055 43.947931 10.731412 18.593474 16.196891 39.135322 16.196891 61.017702 0 21.679765-5.398964 42.10291-16.029069 60.699454z m194.370873-145.709593h-66.602907v200.271256h-31.151488v-200.271256h-66.938551v-30.215162h164.692946v30.215162z" fill="#FF280D" p-id="2494"></path></svg>