<?xml version="1.0" standalone="no"?><!DOCTYPE svg PUBLIC "-//W3C//DTD SVG 1.1//EN" "http://www.w3.org/Graphics/SVG/1.1/DTD/svg11.dtd"><svg class="icon" style="" viewBox="0 0 1024 1024" version="1.1" xmlns="http://www.w3.org/2000/svg" p-id="2473" xmlns:xlink="http://www.w3.org/1999/xlink" width="200" height="200"><defs><style type="text/css"><![CDATA[

]]></style></defs><path d="M613.453646 637.547391l341.194846-338.939479c5.739724-5.739724 8.583492-15.242146 5.478781-22.745027-3.104711-7.492648-9.28548-13.264095-17.400299-13.264095L451.92681 262.59879C440.959014 172.546821 358.318852 90.084715 257.928421 90.084715c-107.756189 0-195.419761 88.110757-195.419761 195.866946s87.663572 195.645912 195.419761 195.645912c47.63081 0 92.469018-16.903995 127.996163-47.849798l183.269024 187.743942c-0.245593 1.254573-4.807493 2.603291-4.807493 3.930519l0 268.556479-101.489462 0c-11.07729 0-20.058848 8.877181-20.058848 19.954471s8.981559 19.954471 20.058848 19.954471l270.791379 0c11.07729 0 20.058848-8.877181 20.058848-19.954471s-8.981559-19.954471-20.058848-19.954471L604.295056 893.978714 604.295056 640.897695C614.528118 639.98593 612.082416 638.918621 613.453646 637.547391zM603.792613 593.024361l-290.50742-290.51663 581.01484 0L603.792613 593.024361zM257.928421 441.700911c-85.636403 0-155.302065-69.666686-155.302065-155.307182s69.666686-156.191318 155.302065-156.191318c78.257342 0 143.079696 61.788252 153.758919 132.396379L264.857227 262.59879c-8.114818 0-15.426341 5.771447-18.531052 13.264095-3.104711 7.502881-1.390673 16.563234 4.349051 22.302959L357.567745 405.28042C329.680605 428.705945 294.829865 441.700911 257.928421 441.700911z" p-id="2474"></path></svg>