<?xml version="1.0" standalone="no"?><!DOCTYPE svg PUBLIC "-//W3C//DTD SVG 1.1//EN" "http://www.w3.org/Graphics/SVG/1.1/DTD/svg11.dtd"><svg class="icon" style="" viewBox="0 0 1024 1024" version="1.1" xmlns="http://www.w3.org/2000/svg" p-id="3885" xmlns:xlink="http://www.w3.org/1999/xlink" width="200" height="200"><defs><style type="text/css"><![CDATA[

]]></style></defs><path d="M763.974313 643.591037l0 361.557616 258.981403 0L1022.955716 725.690894 763.974313 643.591037zM873.362676 926.543388l-79.169107-22.911826 0-67.802222 79.169107 28.531823L873.362676 926.543388zM873.362676 807.859311l-79.169107-22.854521 0-67.804269 79.169107 28.596292L873.362676 807.859311zM972.632587 955.078281l-79.168084-22.853497 0-67.862597 79.168084 28.593222L972.632587 955.078281zM972.632587 836.514955l-79.168084-22.915919 0-67.802222 79.168084 28.469402L972.632587 836.514955zM250.386142 759.219521l-37.399795 24.287149L212.986347 602.13281l-23.726378 9.739828L189.25997 431.000198 16.564769 506.733043 16.564769 682.923858 0.020978 689.729867l0 319.726905 511.715521 0L511.736499 50.395784l-261.349333 165.826769L250.387166 759.219521zM32.361547 541.258371l58.313104-26.845415 0 69.678966-58.313104 25.722848L32.361547 541.258371zM36.732088 654.139278l58.313104-26.843368L95.045191 696.973852l-58.313104 25.720801L36.732088 654.139278zM96.794022 904.380622l-58.313104 25.723871 0-68.615751 58.313104-26.786063L96.794022 904.380622zM96.794022 798.243303l-58.313104 25.721825 0-68.615751 58.313104-26.786063L96.794022 798.243303zM105.034706 507.666298l58.316174-26.844392 0 69.677942-58.316174 25.722848L105.034706 507.666298zM109.407294 620.488877l58.252729-26.786063 0 69.679989-58.252729 25.78527L109.407294 620.488877zM174.465009 871.167173l-58.250682 25.78527 0-68.61882 58.250682-26.847461L174.465009 871.167173zM174.465009 765.025761l-58.250682 25.724895 0-68.554352 58.250682-26.786063L174.465009 765.025761zM386.99138 182.007287l93.52814-60.124356 0 78.608336-93.52814 58.125839L386.99138 182.007287zM386.99138 307.628356l93.52814-60.124356 0 78.605266-93.52814 58.19133L386.99138 307.628356zM386.99138 433.248402l93.52814-60.187801 0 78.666664-93.52814 58.129932L386.99138 433.248402zM386.99138 558.866401l93.52814-60.188824 0 78.607312-93.52814 58.127885L386.99138 558.866401zM386.99138 684.4844l93.52814-60.184731 0 78.603219-93.52814 58.125839L386.99138 684.4844zM280.542976 250.560616l80.601736-51.820226 0 76.045977-80.601736 50.070372L280.542976 250.560616zM280.542976 376.117217l80.601736-51.819203 0 76.045977-80.601736 50.073442L280.542976 376.117217zM280.542976 501.67484l80.601736-51.821249 0 76.047-80.601736 50.133817L280.542976 501.67484zM280.542976 627.295909l80.601736-51.759851 0 75.981509-80.601736 50.13791L280.542976 627.295909zM280.542976 752.916978l80.601736-51.825342 0 76.045977-80.601736 50.074466L280.542976 752.916978zM535.963273 1009.457796 747.489874 1009.457796 747.489874 190.501752 535.963273 53.267181Z" p-id="3886"></path></svg>