<?xml version="1.0" standalone="no"?><!DOCTYPE svg PUBLIC "-//W3C//DTD SVG 1.1//EN" "http://www.w3.org/Graphics/SVG/1.1/DTD/svg11.dtd"><svg class="icon" style="" viewBox="0 0 1030 1024" version="1.1" xmlns="http://www.w3.org/2000/svg" p-id="4592" xmlns:xlink="http://www.w3.org/1999/xlink" width="201.171875" height="200"><defs><style type="text/css"><![CDATA[

]]></style></defs><path d="M965.056 804.352c-58.56-2.112-146.112-24.256-49.92-222.272 118.528-244.032 156.032-353.344 60.992-441.856-56.384-52.544-167.232-17.856-209.856 3.712-0.384-0.32-0.64-0.64-0.896-0.96-80.384-90.112-208.192-149.056-343.808-138.944-186.496 13.888-327.296 186.24-327.296 186.24 52.864 7.104 80.896 81.28 69.376 105.536C152.064 320.128 0 476.544 0 476.544 60.032 495.872 91.52 529.28 91.52 529.28c-65.728 160.192 63.808 250.112 63.808 250.112s188.8-10.112 255.104 5.504c66.304 15.872 85.952 236.16 85.952 236.16l363.264-8.256c0 0 4.032-17.984-83.2-183.424-90.048-171.008 25.856-181.44 69.312-311.168 45.184-134.72 12.608-248.512-48.448-335.04 30.592-11.2 216.192-71.872 164.928 134.976-55.744 225.152-101.312 216.768-135.872 380.672-23.36 110.784 54.016 170.624 188.48 164.032C1032.32 861.888 1023.488 806.528 965.056 804.352L965.056 804.352 965.056 804.352zM793.152 509.824c-39.36 117.44-148.608 142.656-77.632 302.912 66.24 149.824 63.744 158.336 63.744 158.336L540.8 971.072c0 0-50.752-227.456-110.912-241.664-60.16-14.336-244.032 2.752-244.032 2.752S69.696 669.312 149.824 496c0 0-23.168-21.312-77.632-38.848 0 0 139.136-122.56 149.696-144.512 10.496-21.952-12.224-98.496-49.92-130.624 0 0 88.256-104 244.608-124.224 122.496-15.872 242.624 48.192 315.584 129.792C804.992 269.12 840.768 367.936 793.152 509.824L793.152 509.824 793.152 509.824z" p-id="4593"></path></svg>