<?xml version="1.0" standalone="no"?><!DOCTYPE svg PUBLIC "-//W3C//DTD SVG 1.1//EN" "http://www.w3.org/Graphics/SVG/1.1/DTD/svg11.dtd"><svg class="icon" style="" viewBox="0 0 1024 1024" version="1.1" xmlns="http://www.w3.org/2000/svg" p-id="3072" xmlns:xlink="http://www.w3.org/1999/xlink" width="200" height="200"><defs><style type="text/css"><![CDATA[

]]></style></defs><path d="M841.896 125.133c-9.582-7.84-21.051-11.76-34.56-11.76s-25.134 3.92-34.718 11.76c-9.582 7.84-14.295 17.338-14.295 28.495v745.855c0 11.157 4.713 20.655 14.295 28.495s21.207 11.76 34.718 11.76c13.509 0 24.978-3.92 34.56-11.76 9.582-7.84 14.295-17.338 14.295-28.495v-745.855c0-11.157-4.713-20.655-14.295-28.495M631.237 113.373c-27.020 0-49.013 17.942-49.013 40.255v745.855c0 11.157 4.869 20.655 14.452 28.495 9.582 7.84 21.051 11.76 34.56 11.76 13.509 0 25.134-3.92 34.56-11.76 9.582-7.84 14.453-17.338 14.453-28.495v-745.855c0-22.313-21.993-40.255-49.013-40.255M308.415 132.22c-86.4 0-156.462 146.849-156.462 234.898 0 73.726 50.269 133.13 117.033 151.222v381.748c0 22.012 17.594 39.652 39.115 39.652 21.679 0 39.273-17.64 39.273-39.652v-381.597c67.078-18.092 117.504-77.496 117.504-151.373 0-88.049-70.062-234.898-156.462-234.898z" p-id="3073"></path></svg>