<?xml version="1.0" standalone="no"?><!DOCTYPE svg PUBLIC "-//W3C//DTD SVG 1.1//EN" "http://www.w3.org/Graphics/SVG/1.1/DTD/svg11.dtd"><svg class="icon" style="" viewBox="0 0 1024 1024" version="1.1" xmlns="http://www.w3.org/2000/svg" p-id="2929" xmlns:xlink="http://www.w3.org/1999/xlink" width="200" height="200"><defs><style type="text/css"><![CDATA[

]]></style></defs><path d="M510.895341 957.86372c-246.245334 0-446.551382-200.301955-446.551382-446.552405 0-246.196215 200.306048-446.549336 446.551382-446.549336 246.248404 0 446.503287 200.353121 446.503287 446.549336C957.398628 757.561765 757.142721 957.86372 510.895341 957.86372zM510.895341 110.802572c-220.877573 0-400.506696 179.679265-400.506696 400.508743 0 220.832548 179.629123 400.50772 400.506696 400.50772 220.830501 0 400.458601-179.675172 400.458601-400.50772C911.353942 290.481837 731.725842 110.802572 510.895341 110.802572zM510.895341 481.401098c-6.442736 0-12.633738-2.746554-16.927531-7.442506L327.571059 292.431236c-8.588609-9.339716-7.989975-23.918759 1.397836-32.511461 9.340739-8.589632 23.970948-7.939833 32.461319 1.400906l149.46615 162.999374L660.312372 261.320681c8.54256-9.391904 23.12058-9.990538 32.511461-1.400906 9.388834 8.591679 9.986445 23.171746 1.396813 32.511461L527.824919 473.957569C523.530103 478.654544 517.340123 481.401098 510.895341 481.401098zM692.423721 481.401098 329.370031 481.401098c-12.684904 0-22.970154-10.339486-22.970154-23.02132 0-12.685927 10.285251-23.022343 22.970154-23.022343L692.423721 435.357436c12.684904 0 22.969131 10.336416 22.969131 23.022343C715.393875 471.061612 705.109648 481.401098 692.423721 481.401098zM707.506231 632.66315 314.286498 632.66315c-12.732999 0-23.069415-10.290367-23.069415-23.022343s10.336416-23.02132 23.069415-23.02132l393.21871 0c12.731976 0 23.070438 10.289344 23.070438 23.02132S720.238206 632.66315 707.506231 632.66315zM510.895341 788.970102c-12.730952 0-23.02132-10.287297-23.02132-23.020296L487.874021 458.379779c0-12.685927 10.289344-23.022343 23.02132-23.022343 12.734022 0 23.024389 10.336416 23.024389 23.022343l0 307.570028C533.91973 778.682805 523.629363 788.970102 510.895341 788.970102z" p-id="2930"></path></svg>