<?xml version="1.0" standalone="no"?><!DOCTYPE svg PUBLIC "-//W3C//DTD SVG 1.1//EN" "http://www.w3.org/Graphics/SVG/1.1/DTD/svg11.dtd"><svg class="icon" style="" viewBox="0 0 1025 1024" version="1.1" xmlns="http://www.w3.org/2000/svg" p-id="2352" xmlns:xlink="http://www.w3.org/1999/xlink" width="200.1953125" height="200"><defs><style type="text/css"><![CDATA[

]]></style></defs><path d="M512.01408 1023.99744c-282.328894 0-512.01408-229.659586-512.01408-511.96928 0-282.344254 229.683906-512.02816 512.01408-512.02816 282.334014 0 512.01408 229.683906 512.01408 512.02816C1024.02688 794.337854 794.348094 1023.99744 512.01408 1023.99744zM512.01408 35.90519c-262.504304 0-476.07433 213.604586-476.07433 476.12425 0 262.488944 213.570026 476.06921 476.07433 476.06921s476.07945-213.578986 476.07945-476.06921C988.09225 249.509776 774.518384 35.90519 512.01408 35.90519zM382.963523 380.418889l0 134.740143c-1.419516 96.839438-32.999598 175.469641-94.740243 235.799731-9.840615 8.419819-19.679951 9.119977-29.474486 2.100475-8.419819-8.419819-9.149417-17.579476-2.105595-27.370172 58.950253-60.330089 87.005222-131.229112 84.214829-212.634348L340.858028 382.524484c0-12.634848 7.000302-19.650511 21.049547-21.054667C374.543704 361.468536 381.544006 367.784041 382.963523 380.418889zM452.439189 599.368742c0 11.260132-7.050222 17.570516-21.054667 18.950353-14.050525-1.379837-21.049547-7.690221-21.049547-18.950353L410.334974 348.838808c0-12.634848-4.944628-18.219474-14.740443-16.844758l-67.370072 0c-14.050525-1.374717-20.364749 4.209909-18.945233 16.844758l0 244.219549c-1.419516 12.619488-8.424939 19.679951-21.054667 21.049547-14.050525-2.809593-21.054667-10.530534-21.054667-23.160262L267.169892 325.679826c0-25.264577 13.319647-37.164707 40.00502-35.789991l113.684196 0c22.425544-2.804473 32.954798 10.525414 31.580081 39.9999L452.439189 599.368742zM401.908755 649.897895c22.429384 22.460104 42.795413 44.209809 61.054567 65.259357 8.419819 11.229412 7.690221 21.059787-2.105595 29.479606-11.255012 7.019502-21.785546 5.579506-31.580081-4.220149-9.840615-11.249892-22.470344-24.560579-37.894305-39.9999-8.419819-9.789416-14.735323-16.839638-18.950353-21.049547-9.835495-9.789416-9.835495-20.319949 0-31.569841C382.233924 639.368642 392.06942 640.09824 401.908755 649.897895zM709.283347 390.944303c-2.835193 11.255012-7.729901 26.664893-14.735323 46.315404-2.835193 11.260132-4.939508 18.950353-6.315504 23.160262l65.264477 0c12.629728 0 19.635151 7.045102 21.049547 21.054667-1.414396 14.035165-8.419819 21.049547-21.049547 21.049547L477.703766 502.524184c-11.260132 0-17.574356-7.014382-18.950353-21.049547 1.374717-14.009565 7.690221-21.054667 18.950353-21.054667l63.155042 0c0-1.374717-0.729598-3.480311-2.105595-6.315504-5.625586-23.86042-9.835495-42.809493-12.629728-56.844658-2.835193-14.004445 1.374717-23.160262 12.629728-27.370172 12.634848-1.374717 20.325069 4.944628 23.160262 18.950353 1.374717 4.209909 2.795513 10.525414 4.209909 18.945233 5.584626 22.460104 9.109737 35.789991 10.525414 40.00502 2.795513 5.610226 2.795513 9.825255 0 12.629728l67.370072 0c8.424939-19.650511 16.11516-45.584526 23.160262-77.894205 4.209909-14.009565 12.634848-20.325069 25.264577-18.950353C706.448154 367.784041 712.07758 376.938578 709.283347 390.944303zM576.648798 281.468736c-2.835193-11.229412 2.109435-19.650511 14.740443-25.264577 12.629728-4.209909 21.739466-0.700158 27.370172 10.525414 7.000302 14.035165 14.004445 31.580081 21.049547 52.634748l90.530334 0c12.629728 1.405436 19.635151 8.419819 21.054667 21.049547-2.840313 12.634848-10.530534 18.950353-23.160262 18.950353L496.648998 359.364222c-12.629728 0-19.679951-7.019502-21.049547-21.054667 1.369597-12.629728 8.419819-18.945233 21.049547-18.945233l96.844558 0c-1.419516-2.809593-4.209909-8.419819-8.419819-16.844758C580.863828 289.889835 578.023515 282.869053 576.648798 281.468736zM521.913575 542.518964 702.967843 542.518964c19.635151 1.410556 30.164405 14.740443 31.580081 40.01014l0 136.849578c0 22.420424-12.629728 32.939438-37.894305 31.580081L524.01917 750.958763c-22.470344-1.410556-34.415274-11.93981-35.789991-31.580081l0-145.279637C488.229179 553.058457 499.443231 542.518964 521.913575 542.518964zM677.703266 706.738713c9.799656 1.379837 14.009565-2.100475 12.634848-10.520294l0-94.740243c1.374717-11.239652-4.209909-16.839638-16.844758-16.839638l-126.315204 0c-11.260132 0-16.844758 4.19967-16.844758 12.619488l0 98.960393c0 7.010542 4.209909 10.520294 12.634848 10.520294L677.703266 706.738713z" p-id="2353"></path></svg>