<?xml version="1.0" standalone="no"?><!DOCTYPE svg PUBLIC "-//W3C//DTD SVG 1.1//EN" "http://www.w3.org/Graphics/SVG/1.1/DTD/svg11.dtd"><svg class="icon" style="" viewBox="0 0 1024 1024" version="1.1" xmlns="http://www.w3.org/2000/svg" p-id="1907" xmlns:xlink="http://www.w3.org/1999/xlink" width="200" height="200"><defs><style type="text/css"><![CDATA[

]]></style></defs><path d="M949.359534 915.835512 653.479757 618.065687c49.495274-57.931411 79.407538-133.179208 79.407538-215.437677 0-182.997847-147.97417-331.352687-330.49004-331.352687-182.490288 0-330.437851 148.354839-330.437851 331.352687 0 182.998871 147.947564 331.35371 330.437851 331.35371 84.070744 0 160.797219-31.493272 219.123626-83.334987l295.609625 297.497625c8.889461 8.915044 23.316032 8.915044 32.230052 0C958.275601 939.228291 958.275601 924.751578 949.359534 915.835512zM402.421814 688.313611c-157.345608 0-284.873096-127.755686-284.873096-285.330514 0-157.573805 127.527488-285.330514 284.873096-285.330514 157.321048 0 284.847513 127.756709 284.847513 285.330514C687.269327 560.557926 559.742862 688.313611 402.421814 688.313611z" p-id="1908"></path></svg>