<?xml version="1.0" standalone="no"?><!DOCTYPE svg PUBLIC "-//W3C//DTD SVG 1.1//EN" "http://www.w3.org/Graphics/SVG/1.1/DTD/svg11.dtd"><svg class="icon" style="" viewBox="0 0 1024 1024" version="1.1" xmlns="http://www.w3.org/2000/svg" p-id="3233" xmlns:xlink="http://www.w3.org/1999/xlink" width="200" height="200"><defs><style type="text/css"><![CDATA[

]]></style></defs><path d="M767.999212 128l0-64L608 64 608 0 415.998425 0l0 64L255.999212 64l0 64-159.999212 0L96 1024l832 0 0-896L767.999212 128zM864 960l-704 0 0-768 96.000788 0 0 31.999212 512 0 0-31.999212 96.000788 0L864.001575 960zM255.999212 608.000788l512 0L767.999212 543.999212l-512 0L255.999212 608.000788zM255.999212 799.999212l512 0 0-64-512 0L255.999212 799.999212zM255.999212 415.999212l512 0 0-64-512 0L255.999212 415.999212z" p-id="3234"></path></svg>