<?xml version="1.0" standalone="no"?><!DOCTYPE svg PUBLIC "-//W3C//DTD SVG 1.1//EN" "http://www.w3.org/Graphics/SVG/1.1/DTD/svg11.dtd"><svg class="icon" style="" viewBox="0 0 1024 1024" version="1.1" xmlns="http://www.w3.org/2000/svg" p-id="1825" xmlns:xlink="http://www.w3.org/1999/xlink" width="200" height="200"><defs><style type="text/css"><![CDATA[

]]></style></defs><path d="M712.967616 64.095807 280.019043 64.095807c-20.512173 0-37.149085 18.720364-37.149085 41.797965l0 811.495118c0 23.078625 16.636912 41.797965 37.149085 41.797965l432.948573 0c20.511149 0 37.119409-18.71934 37.119409-41.797965L750.087025 105.893772C750.088048 82.816171 733.478765 64.095807 712.967616 64.095807zM480.948285 103.139032l26.51284 0c5.652743 0 10.227945 5.114484 10.227945 11.422144 0 6.307659-4.575202 11.42112-10.227945 11.42112l-26.51284 0c-5.652743 0-10.225899-5.113461-10.225899-11.42112C470.722386 108.253516 475.295542 103.139032 480.948285 103.139032zM496.479003 938.979628c-23.310915 0-42.189891-18.879999-42.189891-42.190915 0-23.307845 18.878976-42.189891 42.189891-42.189891s42.189891 18.881023 42.189891 42.189891C538.667871 920.099628 519.789918 938.979628 496.479003 938.979628zM700.846554 808.881594c0 13.69593-9.93528 24.811082-22.172999 24.811082L316.733223 833.692676c-12.266371 0-22.203698-11.115152-22.203698-24.811082L294.529525 165.94445c0-13.694907 9.936303-24.810059 22.203698-24.810059l361.940332 0c12.237719 0 22.172999 11.115152 22.172999 24.810059L700.846554 808.881594z" p-id="1826" fill="#bfbfbf"></path></svg>