<?xml version="1.0" standalone="no"?><!DOCTYPE svg PUBLIC "-//W3C//DTD SVG 1.1//EN" "http://www.w3.org/Graphics/SVG/1.1/DTD/svg11.dtd"><svg class="icon" style="" viewBox="0 0 1024 1024" version="1.1" xmlns="http://www.w3.org/2000/svg" p-id="3463" xmlns:xlink="http://www.w3.org/1999/xlink" width="200" height="200"><defs><style type="text/css"><![CDATA[

]]></style></defs><path d="M514.048 59.392q93.184 0 174.592 35.328t142.336 96.768 96.256 143.36 35.328 175.104-35.328 175.616-96.256 143.872-142.336 96.768-174.592 35.328-175.104-35.328-142.848-96.768-96.256-143.872-35.328-175.616 35.328-175.104 96.256-143.36 142.848-96.768 175.104-35.328zM795.648 423.936q18.432-18.432 19.456-45.568t-17.408-45.568-45.056-17.92-45.056 18.944l-288.768 288.768-99.328-98.304q-18.432-18.432-45.056-18.944t-45.056 17.92-18.944 43.52 17.92 43.52l142.336 143.36q18.432 18.432 48.128 17.92t48.128-18.944l-4.096 4.096z" p-id="3464" fill="#1afa29"></path></svg>